<?xml version="1.0" encoding="UTF-8"?>
<svg id="Layer_1" data-name="Layer 1" xmlns="http://www.w3.org/2000/svg" viewBox="0 0 226.2 212.19">
  <defs>
    <style>
      .cls-1 {
        fill: #701c1b;
        stroke-width: 0px;
      }
    </style>
  </defs>
  <path class="cls-1" d="M43.73,97c0-9.96,7.54-32.13,8.6-36.05,2.11-7.54,3.77-13.58-1.66-13.58-3.47,0-8.9,4.83-14.03,16.44-4.83,11.01-7.69,24.44-9.81,48.73-4.68-.15-22.61,0-26.8.17l2.97-26.57L15.37,2.71H4.81l.45-2.71h39.68l-13.28,65.77.6.3c5.88-13.28,12.97-26.25,30.62-26.25,11.77,0,17.2,5.88,17.2,15.84,0,3.47-.75,7.54-2.11,12.82l-6.18,25.49c-.9,3.92-1.96,9.05-1.96,10.86,0,2.87,1.51,3.62,3.32,3.62,2.87,0,6.2-2.46,10.58-9.4l2.1,2.16c-5.58,9.05-11.31,13.42-22.33,13.42s-19.76-4.68-19.76-17.65Z"/>
  <path class="cls-1" d="M149.76,53.08c0,14.78-16.14,19.16-30.17,21.12-4.83.6-8.6.75-11.77.75-2.11,21.27,2.11,30.47,12.67,30.47,7.39,0,15.54-5.28,20.82-21.72l3.02.9c-5.58,18.56-16.59,26.25-34.7,26.25-19.16,0-30.47-10.26-30.47-28.06,0-30.93,18.7-46.76,45.41-46.76,17.05,0,25.19,5.88,25.19,17.05ZM123.21,38.9c-8.15,0-12.82,14.94-15.09,33.19,10.26-.45,19.61-5.43,19.61-23.99,0-5.58-.91-9.2-4.53-9.2Z"/>
  <path class="cls-1" d="M147.33,135.6c-2.87,3.47-2.72,10.41,4.83,10.41s17.95-6.49,28.96-20.06c-5.73-21.12-14.63-52.04-19.01-66.98-1.81-6.49-2.87-9.65-5.73-9.65-3.02,0-4.46,2.55-8.38,11.3l-3.02-.9c3.77-9.05,9.14-20.8,25.13-20.8,10.26,0,15.69,4.68,19.01,15.69,4.68,15.39,8,29.72,12.22,45.1,12.82-18.86,16.89-27.76,16.89-34.09,0-4.37-2.11-6.03-5.43-6.34l-4.53,6.34c-7.69-1.96-11.16-7.69-11.16-13.42,0-6.64,4.83-13.28,13.58-13.28,9.5,0,14.93,6.34,14.93,17.2,0,14.48-14.03,35.75-24.74,50.08-16.9,22.48-30.47,43.75-52.65,43.75-11.31,0-18.86-6.94-18.86-17.05,0-9.5,6.79-15.09,14.63-15.09,6.94,0,13.88,5.13,11.01,16.75l-7.69,1.06Z"/>
  <g>
    <g>
      <path class="cls-1" d="M0,210.98l.12-49.95,33.25.08c2.52,0,4.81.53,6.89,1.58,2.08,1.05,3.74,2.49,5,4.33,1.25,1.84,1.88,3.97,1.87,6.39,0,2.42-.4,4.4-1.18,5.95-.78,1.55-1.8,2.77-3.06,3.66-1.26.89-2.64,1.55-4.14,1.99v.29c1.74.39,3.32,1.06,4.75,2.01,1.42.95,2.57,2.27,3.44,3.96.87,1.7,1.3,3.88,1.29,6.54,0,2.66-.67,4.98-1.98,6.96-1.31,1.98-3.06,3.53-5.24,4.63-2.18,1.11-4.63,1.66-7.34,1.65l-33.69-.08ZM16.07,199.4l12.2.03c1.11,0,2.01-.38,2.69-1.16.68-.77,1.02-1.93,1.03-3.48,0-.73-.15-1.39-.47-2-.31-.61-.75-1.08-1.3-1.42-.56-.34-1.2-.51-1.92-.51l-12.2-.03-.02,8.57ZM16.12,180.53l11.03.03c.77,0,1.43-.18,1.96-.54.53-.36.96-.88,1.27-1.56.32-.68.48-1.52.48-2.54,0-1.06-.36-1.97-1.08-2.72-.72-.75-1.59-1.13-2.61-1.13l-11.03-.03-.02,8.49Z"/>
      <path class="cls-1" d="M77.68,212.04c-5.66-.01-10.5-.99-14.51-2.94-4.01-1.94-7.08-4.84-9.2-8.7-2.12-3.85-3.17-8.61-3.16-14.27.01-5.71,1.09-10.47,3.23-14.29,2.14-3.82,5.22-6.69,9.24-8.62,4.02-1.92,8.86-2.88,14.53-2.87,5.71.01,10.57,1,14.58,2.94,4.01,1.95,7.08,4.83,9.2,8.66,2.12,3.83,3.17,8.6,3.16,14.31-.01,5.66-1.09,10.42-3.23,14.26-2.14,3.84-5.22,6.73-9.24,8.65-4.02,1.93-8.89,2.88-14.6,2.87ZM77.71,200.07c1.74,0,3.28-.27,4.61-.82,1.33-.55,2.45-1.34,3.35-2.35.9-1.01,1.57-2.23,2.01-3.66.44-1.42.66-2.99.67-4.68v-4.65c.02-1.69-.2-3.25-.63-4.68-.43-1.43-1.09-2.65-1.99-3.67-.89-1.02-2-1.81-3.33-2.37-1.33-.56-2.87-.84-4.61-.85-1.74,0-3.28.27-4.61.82-1.33.55-2.44,1.34-3.31,2.35s-1.53,2.24-1.97,3.66c-.44,1.43-.66,2.99-.67,4.68v4.65c-.02,1.69.2,3.26.63,4.68.43,1.43,1.08,2.65,1.95,3.67s1.97,1.81,3.3,2.37c1.33.56,2.87.84,4.61.85Z"/>
      <path class="cls-1" d="M134.52,212.19c-5.66-.01-10.5-.99-14.51-2.94-4.01-1.94-7.08-4.84-9.2-8.7-2.12-3.85-3.17-8.61-3.16-14.27.01-5.71,1.09-10.47,3.23-14.29,2.14-3.82,5.22-6.69,9.24-8.62,4.02-1.92,8.86-2.88,14.53-2.87,5.71.01,10.57,1,14.58,2.94,4.01,1.95,7.08,4.83,9.2,8.66,2.12,3.83,3.17,8.6,3.16,14.31-.01,5.66-1.09,10.42-3.23,14.26-2.14,3.84-5.22,6.73-9.24,8.65-4.02,1.93-8.89,2.88-14.6,2.87ZM134.55,200.21c1.74,0,3.28-.27,4.61-.82,1.33-.55,2.45-1.34,3.35-2.35.9-1.01,1.57-2.23,2.01-3.66.44-1.43.66-2.99.67-4.68v-4.65c.02-1.69-.2-3.25-.63-4.68-.43-1.43-1.09-2.65-1.99-3.67-.89-1.02-2-1.81-3.33-2.37-1.33-.56-2.87-.84-4.61-.85s-3.28.27-4.61.82c-1.33.55-2.44,1.34-3.31,2.35-.87,1.01-1.53,2.24-1.97,3.66-.44,1.43-.66,2.99-.67,4.68v4.65c-.02,1.69.2,3.26.63,4.68.43,1.43,1.08,2.65,1.95,3.67.87,1.02,1.97,1.81,3.3,2.37,1.33.56,2.87.84,4.61.85Z"/>
      <path class="cls-1" d="M166.54,211.4l.12-49.95,33.25.08c2.52,0,4.81.53,6.89,1.58,2.08,1.05,3.74,2.49,5,4.33,1.25,1.84,1.88,3.97,1.87,6.39,0,2.42-.4,4.4-1.18,5.95-.78,1.55-1.8,2.77-3.06,3.66-1.26.89-2.64,1.55-4.14,1.99v.29c1.74.39,3.32,1.06,4.75,2.01,1.42.95,2.57,2.27,3.44,3.96.87,1.7,1.3,3.88,1.29,6.54,0,2.66-.67,4.98-1.98,6.96-1.31,1.98-3.06,3.53-5.24,4.63-2.18,1.11-4.63,1.66-7.34,1.65l-33.69-.08ZM182.61,199.82l12.2.03c1.11,0,2.01-.38,2.69-1.16.68-.77,1.02-1.93,1.03-3.48,0-.73-.15-1.39-.47-2-.31-.61-.75-1.08-1.3-1.42s-1.2-.51-1.92-.51l-12.2-.03-.02,8.57ZM182.66,180.94l11.04.03c.77,0,1.43-.18,1.96-.54.53-.36.96-.88,1.27-1.56.32-.68.48-1.52.48-2.54,0-1.06-.36-1.97-1.08-2.72-.72-.75-1.59-1.13-2.61-1.13l-11.03-.03-.02,8.49Z"/>
    </g>
    <path class="cls-1" d="M216.8,166.89v-4.35s-1.81,0-1.81,0v-1.03s4.81.02,4.81.02v1.03s-1.83,0-1.83,0v4.35s-1.16,0-1.16,0ZM220.35,166.91l.02-5.39h1.7s1.19,3.88,1.19,3.88h.07l1.23-3.87h1.66s-.02,5.4-.02,5.4h-1.13s.01-3.88.01-3.88h-.05l-1.25,3.87h-1.06s-1.24-3.93-1.24-3.93h-.05v3.92s-1.06,0-1.06,0Z"/>
  </g>
</svg>