<?xml version="1.0" encoding="UTF-8"?>
<svg id="Layer_1" data-name="Layer 1" xmlns="http://www.w3.org/2000/svg" viewBox="0 0 180.9 233.11">
  <defs>
    <style>
      .cls-1 {
        fill: #fff9f6;
      }
    </style>
  </defs>
  <path class="cls-1" d="M30.31,229.19h95.67s-13.86-19.8-12.65-29.26c1.21-9.46,4.22-22.86,6.24-27.97,2.35-5.95,2.16-9.26,6.41-10.46s22.44,1.14,26.79,0c4.74-1.25,8.25-3.82,8.25-7.04s-1.13-8.37-.12-10.38,4.73-2.54,5.8-6.18c.8-2.71-1.45-4.16-1.45-4.16,0,0,3.39-2.4,3.05-4.79-.39-2.74-2.32-4.52-2.32-4.52,0,0-.34-3.41,1.69-4.22s7.69-1.93,9-5.39c1.2-3.15-.83-5.47-2.45-7.17-1.9-2-11.74-11.63-11.94-15.3s.8-5.73.8-5.73c.63.25,7,.2,7.13-2.45,0,0-5.47,2.31-7.08.31-.11-.14.04.2.04.2,0,0-.09-5.4.32-8.02.24-1.57.56-2.79.62-3,.16-.57,1.49-6.46,1.72-8.71s-.23-7.68-.69-9.63,3.57,4.54,1.27,11.23c0,0,5.13-3.37,5.7-8.23.93-7.85-5.35-24.05-13.38-30.93s-24.55-16.91-32.23-19.09-42.2-6.54-52.29,0c0,0-20.41-5.5-28.9,1.49s-18.12,16.63-21.56,23.16-11.01,29.7-10.43,45.29,1.49,28.67-1.95,40.94-9.06,29.35-3.1,40.25c5.96,10.89,13.53,11.24,17.09,10.89,0,0-3.44-.92-3.67-5.16s2.52-8.03,2.52-8.03c0,0-.34,17.54,20.87,23.39,0,0,.69,9.06-3.1,17.09s-11.31,25.45-11.68,31.59Z"/>
  <path class="cls-1" d="M13.64,86.6s-4.76,27.93-7.98,35.37-4.01,23.78-3.22,27.58c1.15,5.52,6.28,8.54,6.28,8.54,0,0-4.62-5.8-4.81-10.98-.16-4.32-.76-5.38,1.76-16.84.65-2.97,4.29-13.02,4.83-14.52,1.39-3.82,3.29-13.46,3.29-13.46l3.9-13.75-4.05-1.94Z"/>
  <path class="cls-1" d="M132.05,14.96s22.12,5.64,27.55,10.33c4.54,3.92,7.77,9.11,10.31,14.7,2.74,6.03,2.67,13.73,1.46,16.58s-.21,4.7-.21,4.7c0,0,3.42-4.92,3.68-11.02.2-4.7-1.22-12.2-6.75-19.68-6.11-8.27-9.48-9.74-14.28-12.34-5.48-2.98-24.51-8.94-24.51-8.94l1.88,9.11.85-3.42Z"/>
</svg>