<?xml version="1.0" encoding="UTF-8"?>
<svg id="Layer_1" data-name="Layer 1" xmlns="http://www.w3.org/2000/svg" viewBox="0 0 228.75 244.29">
  <defs>
    <style>
      .cls-1 {
        fill: #fff9f6;
      }
    </style>
  </defs>
  <g>
    <path class="cls-1" d="M63.85,236.3h103.73s-14.5-36.92-5.27-52.74c9.23-15.82,7.49-13.6,14.83-12.69,7.34.9,26.8,1.93,28.86,1.67s9.66-3.86,9.53-7.86-2.83-10.69-2.58-12.24-.39-4.51,1.8-5.93,5.67-3.61,5.8-5.54,3.09-6.57-2.71-10.31c0,0,4.32-2.83,3.58-5.67s-1.26-5.93-4.86-7.34-1.42-2.19-1.29-2.71,6.42-2.96,6.24-6.7c-.18-3.74-.7-5.54-3.02-6.83s-17.78-7.47-18.04-9.53-1.29-3.61-.64-7.34c0,0,8.76.64,10.05-3.22,0,0-9.28,2.71-10.69-.64s2.71-9.28,2.71-15.33-2.45-18.87-11.34-29.76c-8.89-10.89-28.6-20.03-28.6-20.03,0,0-8.12-1.03-9.53-.64s-10.18-14.56-24.74-4.77c0,0-5.67-10.82-20.48-2.32,0,0-14.56-3.09-17.91,8.5,0,0-11.85-1.55-14.43,3.35,0,0-18.55-3.74-13.79,10.69,0,0-15.59,7.47-8.25,19.45,0,0-10.31-4.25-11.72,5.15,0,0-3.09-3.61-6.83-.39,0,0-3.48-5.02-9.66.13,0,0-19.58.13-11.59,12.11,0,0-5.25,3.61-1.92,7.6s4.11,3.35,5.26,3.61c0,0-9.4,2.19-4.38,8.12,0,0-7.6,2.19-3.48,9.4,0,0-10.05,17.78,5.28,15.07,0,0-3.61,12.13,8.25,9.8,0,0-8.12,11.33,5.8,12.75,0,0,2.06,14.94,16.1,5.15,0,0,12.37,3.74,10.05-6.31,0,0,11.47,8.37,13.66,2.06,0,0,13.66-5.02,4.12-11.85,0,0,1.16-3.99.13-5.15,0,0,2.45,7.86,6.96,4.9,0,0-1.67,9.4,6.83,8.12,0,0-3.74,3.86,3.99,7.99,7.73,4.12.39,38.91-1.55,45.74s-22.38,43.4-24.26,52.49Z"/>
    <path class="cls-1" d="M168.31,236.8H63.23l.12-.6c1.09-5.26,8.25-19.46,14.56-31.98,4.58-9.09,8.9-17.67,9.72-20.55,2.31-8.16,8.85-41.4,1.79-45.16-3.08-1.64-4.8-3.47-5.11-5.43-.15-.98.08-1.81.36-2.39-2.02.11-3.59-.41-4.7-1.55-1.79-1.84-1.85-4.77-1.74-6.29-.86.35-1.7.38-2.52.08-1.29-.46-2.29-1.66-3-2.84-.1.77-.27,1.49-.39,1.93,2.43,1.82,3.53,3.71,3.27,5.63-.52,3.83-6.35,6.33-7.58,6.81-.46,1.15-1.25,1.91-2.36,2.26-3.35,1.04-8.75-2.15-10.98-3.61.28,2.17-.17,3.82-1.34,4.91-2.65,2.48-8.11,1.18-9.33.85-4.52,3.1-8.32,4.01-11.3,2.7-3.87-1.69-5.05-6.53-5.32-7.95-4.08-.48-6.68-1.89-7.72-4.2-1.36-3,.34-6.63,1.33-8.33-3.02.4-5.25-.18-6.64-1.71-2.2-2.42-1.62-6.47-1.25-8.15-3.62.51-6.1-.15-7.38-1.96-2.82-3.99,1.35-12.16,2.19-13.72-1.21-2.23-1.47-4.24-.77-5.97.86-2.12,2.92-3.22,4-3.67-1.07-1.47-1.4-2.86-.98-4.14.62-1.86,2.7-3.02,4.26-3.64-.88-.39-1.96-1.27-3.73-3.39-.96-1.15-1.36-2.39-1.18-3.69.29-2.09,2.02-3.71,2.81-4.35-1.84-2.91-2.22-5.42-1.15-7.44,2.46-4.63,11.77-5.02,13.23-5.05,2.18-1.78,4.3-2.55,6.29-2.27,1.85.25,3.07,1.33,3.63,1.94,1.11-.84,2.28-1.22,3.47-1.12,1.29.1,2.32.72,2.96,1.23.51-2.2,1.59-3.78,3.22-4.71,2.62-1.48,5.97-.87,7.76-.35-1.45-2.85-1.77-5.69-.96-8.44,1.73-5.86,8.02-9.51,9.67-10.38-1.14-3.7-.84-6.57.89-8.52,3.46-3.9,11.44-2.79,13.24-2.47,2.73-4.3,12.18-3.57,14.33-3.34,3.43-10.71,16.43-8.79,18.18-8.48,5.29-3,10.04-3.92,14.11-2.74,3.84,1.12,5.91,3.79,6.62,4.88,11.55-7.44,19.58.32,23.03,3.65.58.57,1.24,1.2,1.5,1.32,1.64-.35,8.82.55,9.65.65l.15.04c.2.09,19.92,9.32,28.78,20.17,9.04,11.07,11.45,24.11,11.45,30.08,0,2.92-.93,5.8-1.75,8.34-.9,2.79-1.67,5.19-1,6.8,1.02,2.41,7.63,1.08,10.09.36l.92-.27-.3.91c-1.23,3.69-8.21,3.66-10.1,3.59-.33,2.29.02,3.65.35,4.98.15.59.29,1.16.37,1.78.26,1.28,9.64,5.46,13.64,7.24,1.96.87,3.51,1.56,4.15,1.92,2.55,1.42,3.09,3.46,3.27,7.24.15,3.09-3.46,5.25-5.41,6.4-.35.21-.75.45-.88.56-.08.19-.23.34-.39.5-.12.12-.35.34-.33.44,0,.04.13.43,1.75,1.07,3.57,1.4,4.33,4.39,5,7.03l.17.65c.65,2.48-1.97,4.84-3.19,5.79,4.28,3.12,3.26,6.79,2.64,9.03-.15.53-.28,1-.3,1.32-.14,2.12-3.43,4.25-5.83,5.8l-.2.13c-1.43.93-1.46,2.65-1.49,4.17,0,.52-.02,1.01-.09,1.42-.1.59.44,2.51.96,4.35.73,2.6,1.56,5.55,1.63,7.79.14,4.43-7.86,8.11-9.97,8.37-2.15.27-21.86-.8-28.98-1.67-.94-.12-1.73-.25-2.42-.37q-4.05-.69-10.52,10.42l-1.4,2.4c-9,15.43,5.17,51.94,5.31,52.31l.27.68ZM64.48,235.8h102.38c-.88-2.34-3.79-10.44-5.86-19.83-3.31-15-3.01-25.99.88-32.67l1.4-2.4c6.69-11.51,6.83-11.72,11.56-10.91.67.12,1.45.25,2.37.36,7.59.93,26.83,1.91,28.74,1.67,1.94-.24,9.21-3.79,9.1-7.35-.07-2.12-.91-5.13-1.59-7.55-.71-2.54-1.11-4.01-.98-4.79.06-.34.07-.8.08-1.28.03-1.59.07-3.78,1.95-4.99l.2-.13c1.97-1.27,5.26-3.4,5.37-5.02.03-.43.17-.94.33-1.53.65-2.33,1.54-5.52-2.81-8.33l-.65-.42.64-.42s4.01-2.67,3.37-5.12l-.17-.66c-.67-2.64-1.3-5.13-4.39-6.35-1.5-.59-2.23-1.14-2.36-1.8-.13-.63.33-1.08.61-1.35.06-.06.16-.16.18-.19.06-.28.37-.46,1.28-1.01,1.76-1.05,5.04-3,4.92-5.5-.19-3.94-.79-5.32-2.76-6.42-.6-.33-2.13-1.01-4.07-1.88-9.29-4.14-14.03-6.52-14.22-8.03-.07-.57-.2-1.1-.35-1.66-.36-1.44-.77-3.07-.29-5.83l.08-.45.45.03c2.04.15,7.08.03,8.95-1.92-2.71.65-8.82,1.75-10.09-1.25-.82-1.95,0-4.52.97-7.49.8-2.47,1.7-5.27,1.7-8.03,0-5.83-2.36-18.59-11.23-29.44-8.45-10.35-27.06-19.25-28.35-19.86-3.11-.39-8.3-.91-9.26-.65-.58.16-1.14-.39-2.38-1.58-3.6-3.48-11.1-10.73-22.21-3.25l-.46.31-.26-.49s-1.94-3.59-6.32-4.86c-3.84-1.11-8.37-.19-13.48,2.74l-.17.09-.19-.04c-.57-.12-14.14-2.86-17.32,8.15l-.12.41-.43-.05c-.12-.02-11.54-1.44-13.92,3.09l-.17.33-.37-.07c-.09-.02-9.21-1.8-12.65,2.09-1.54,1.74-1.73,4.41-.56,7.95l.14.42-.4.19c-.08.04-7.71,3.76-9.53,9.96-.84,2.84-.33,5.79,1.5,8.78l.8,1.31-1.42-.58s-4.89-1.97-8.15-.12c-1.56.89-2.54,2.53-2.89,4.89l-.16,1.07-.71-.82c-.11-.13-2.82-3.18-6.12-.33l-.42.36-.32-.45s-1.19-1.66-3.29-1.94c-1.75-.23-3.64.5-5.64,2.17l-.14.12h-.18c-.1,0-10.2.12-12.54,4.53-.94,1.76-.48,4.05,1.36,6.81l.27.41-.4.28s-2.47,1.73-2.78,3.96c-.14,1,.19,1.98.96,2.91,2.65,3.18,3.57,3.27,4.38,3.35.2.02.4.04.61.09l2.14.48-2.13.5s-4.52,1.08-5.34,3.57c-.36,1.09.05,2.35,1.23,3.73l.5.59-.74.22s-3.05.91-4.03,3.33c-.6,1.5-.32,3.29.85,5.34l.14.25-.14.25c-.05.09-5.08,9.09-2.38,12.9,1.12,1.59,3.53,2.07,7.14,1.43l.8-.14-.23.78c-.02.05-1.54,5.33.85,7.95,1.31,1.44,3.61,1.85,6.82,1.22l1.24-.24-.73,1.02s-3.41,4.84-1.85,8.3c.92,2.03,3.37,3.25,7.29,3.65l.39.04.05.39c0,.06.86,5.83,4.8,7.56,2.69,1.17,6.23.25,10.52-2.75l.2-.14.23.07c.06.02,6.08,1.79,8.59-.56,1.1-1.03,1.38-2.77.83-5.16l-.3-1.31,1.08.79c.07.05,7.35,5.33,11.09,4.16.87-.27,1.46-.88,1.79-1.85l.08-.22.22-.08c.07-.03,6.66-2.5,7.15-6.09.21-1.59-.84-3.24-3.14-4.89l-.29-.21.1-.34c.33-1.14.62-2.79.51-3.84-.24-.57-.36-.97-.38-1.03l-.69-2.21,1.54,1.73c.27.3.42.73.5,1.22.56,1.31,1.69,3.46,3.3,4.03.8.29,1.62.14,2.51-.44l.97-.64-.2,1.14s-.72,4.25,1.37,6.39c1.06,1.09,2.71,1.47,4.9,1.14l1.46-.22-1.03,1.06s-.96,1.04-.72,2.51c.26,1.61,1.85,3.23,4.59,4.69,8.35,4.45.22,40.96-1.3,46.31-.84,2.97-4.99,11.2-9.79,20.72-6.05,12.01-12.88,25.56-14.33,31.13Z"/>
  </g>
  <path class="cls-1" d="M44.66,45.79c-.03-1.09-17.51,3.53-.15,10.08l2.76-2.52c-.05-.09-14.09-2.5-2.62-7.57Z"/>
  <path class="cls-1" d="M5.88,80.15s-4.91-3.18-1.71-5.43c3.2-2.25,7.47.38,7.47.38l-.4-3.86c1.53-.03-4.52-1.64-8.31-.66-1.73.45-3.63,2.73-2.68,6.4s5.62,3.18,5.62,3.18Z"/>
  <path class="cls-1" d="M16.05,118.76s-6.28,5.93-4.64,8.95,5.89,4.74,5.89,4.74c0,0-3.44,4.34-2.21,6.63s4.79,3.29,6.02,2.83c.91-.34,4.37-3.57,4.37-3.57,0,0-4.5,2.23-5.89.19s.25-4.85,1.55-5.83,2.13-1.52,2.13-1.52l-1.66-1.59s-6.03,2.37-6.19-1.8,2.84-6.91,4.28-7.57,2.1-1.68,2.1-1.68l-4.42-1.96-1.33,2.17Z"/>
  <path class="cls-1" d="M54.35,135.45s2.65,2.39,2.65,4.59-1.42,4.39-2.65,4.31c0,0,2.65.55,3.84-.47,1.47-1.27,2.26-3.05,1.94-4.67s-2.1-5.07-2.1-5.07l-3.68-3.21-1.42,3.36,1.42,1.15Z"/>
  <path class="cls-1" d="M128.9,9.36s-7.83-9.91-16.67-3.85c0,0,4.73-6.65,11.3-3.71s8.52,6.18,8.52,6.18l-.82,2.55-2.32-1.17Z"/>
</svg>