<?xml version="1.0" encoding="UTF-8"?>
<svg id="Layer_1" data-name="Layer 1" xmlns="http://www.w3.org/2000/svg" viewBox="0 0 179.56 247.31">
  <defs>
    <style>
      .cls-1 {
        fill: #fff9f6;
      }
    </style>
  </defs>
  <path class="cls-1" d="M30.02,241.38h92.82s-8.6-15.65-8.6-20.87,1.03-18.87,1.78-22.56c.81-3.96,1.78-13.13,9.43-12.87s26.64,5.1,30.46,1.66,4.97-6.12,4.59-9.05-2.29-6.88-2.29-6.88c0,0,5.35-4.46.89-8.28,0,0,4.84-5.86.25-8.92,0,0-2.68-4.33-.13-4.97s7.27-1.78,7.9-2.93,1.91-2.17-1.53-6.12-8.79-9.81-8.79-11.73.25-10.32.25-10.32c0,0,5.86,2.04,10.32-3.57,0,0-8.67,3.57-10.2-.76,0,0,1.4-11.47,1.27-17.72s-1.27-7.9-1.27-7.9l8.67,7.65s-2.42-14.15-11.34-19.12c0,0,10.83-2.68,17.21,4.72,0,0-.38-10.58-13.13-13,0,0,15.42,4.72,19.76,0,0,0-10.58.64-14.4-3.31,0,0,1.15-3.19,6.63,1.4,0,0,3.57-11.22-11.6-13,0,0,4.59-5.86,19.37-2.68,0,0-4.4-8.79-36.2-4.59,0,0,12.81-11.6,24.28-12.36,0,0-19.34-7.46-35.53,4.26,0,0,10.42-14.27,6.73-26.31,0,0-10.2,24.79-18.1,24.41,0,0-4.97-14.66,2.04-22.18,0,0-12.49,1.4-8.41,17.72,0,0-6.76-9.05-3.7-19.12,0,0-11.98,8.79-12.87,18.23,0,0,4.33-15.8-1.27-25.49,0,0-9.43,18.35-15.55,18.35,0,0,2.68-10.96-3.19-14.79,0,0-2.29,14.53-14.79,23.71,0,0-7.65-12.11-2.17-16.82,0,0-8.79-1.66-7.39,19.25,0,0-3.95-8.16-14.28-6.37,0,0,9.3,3.31,11.09,12.62,0,0-4.72,11.09-33.39,3.44,0,0,5.23,8.28,18.48,8.16,0,0-15.68,13.13-24.85,9.3,0,0,5.86,4.72,12.75,3.31,0,0-4.06,13.15-6.23,13.02s-4.99-10.86-12.89-7.8c0,0,5.99,3.82,7.01,8.79s5.74,9.56,7.01,9.69-12.49,8.16-15.93,1.78c0,0,2.04,12.36,16.06,7.65,0,0-15.93,14.02-9.3,21.8,0,0,1.66-15.93,14.79-12.49,0,0-12.62,22.31-9.69,29.32,0,0,3.7-14.53,14.53-11.73,0,0-10.87,10.87-7.27,28.3.08.38.16.76.26,1.15,4.33,18.1-.18-.77-.18-.77,0,0,3.36-20.52,9.86-18.1,0,0-6.63,20.52-1.02,29.19s11.34,5.74,11.34,5.74c0,0-8.67-3.7-6.25-13.51,0,0,5.99,14.02,15.17,14.91,0,0-5.99-5.86-4.21-9.05,0,0,5.48,7.9,17.33,8.41,0,0,7.01,2.68-4.84,23.32s-22.63,29.25-27.56,46.81Z"/>
  <path class="cls-1" d="M123.68,241.88H29.36l.18-.64c3.08-10.96,8.53-18.61,14.84-27.47,3.88-5.44,8.27-11.62,12.77-19.45,7.4-12.88,7.23-18.53,6.48-20.75-.43-1.27-1.12-1.72-1.33-1.83-9.84-.46-15.3-5.83-17.03-7.86-.28,2.46,2.95,6.25,4.37,7.65l1.01.99-1.41-.14c-7.71-.75-13.11-10.17-14.92-13.81-1.15,8.17,5.93,11.32,6.24,11.45l.98.42-.95.49c-.06.03-6.2,3.03-11.99-5.91-5.25-8.11-.19-25.85.81-29.12-.58-.11-1.15,0-1.71.33-4.34,2.52-6.79,16.11-7.01,17.41,0,0,0,0,0,.01l1,4.2c.21.89.39,1.61.52,2.21.35,1.45.49,2.05.5,2.1l-.07.02c.05.51-.07.54-.3.59-.3.07-.41.1-.58-.38h-.03s-.08-.33-.2-.81c-.06-.25-.13-.54-.22-.9l-1.47-6.12c-.05-.22-.1-.44-.15-.67-.02-.07-.02-.1-.02-.1l-.02-.1h0c-.02-.11-.04-.2-.06-.3-3.12-15.09,4.57-25.46,6.81-28.09-2.22-.4-4.27-.05-6.12,1.04-5.01,2.96-6.96,10.43-6.98,10.51l-.37,1.45-.58-1.38c-2.76-6.6,7.38-25.54,9.39-29.18-3.08-.68-5.73-.27-7.89,1.22-4.79,3.31-5.64,10.91-5.65,10.99l-.12,1.16-.76-.89c-5.66-6.64,3.91-17.22,7.83-21.06-3.79.92-7.01.61-9.57-.93-4.23-2.55-5.09-7.48-5.13-7.69l-.49-2.95,1.42,2.63c.71,1.31,1.99,2.04,3.8,2.17,3.97.28,9.34-2.39,10.91-3.5-1.96-1.1-5.79-5.27-6.72-9.81-.96-4.7-6.73-8.44-6.79-8.47l-.83-.53.92-.36c5.8-2.25,9,2.41,11.12,5.49.72,1.05,1.55,2.25,1.98,2.27h.01c.94,0,3.38-5.35,5.47-11.89-6.67.94-12.1-3.36-12.34-3.55l-2.74-2.2,3.24,1.35c7.43,3.1,19.56-5.53,23.25-8.36-12.34-.43-17.28-8.04-17.49-8.37l-.68-1.08,1.23.33c26.15,6.98,32.08-1.86,32.74-3.03-1.79-8.78-10.64-12.04-10.73-12.07l-1.79-.64,1.87-.32c7.63-1.31,11.94,2.68,13.76,5.04-.42-10.32,1.86-14.66,3.92-16.49,2.04-1.81,4.08-1.45,4.17-1.43l1.02.19-.79.68c-4.51,3.88.69,13.49,1.98,15.71,11.79-8.96,14.12-22.91,14.15-23.05l.12-.76.65.42c5.29,3.45,4.04,12.1,3.55,14.63,4.79-1.04,12-13.2,14.47-18.01l.42-.81.46.79c3.33,5.75,3.26,13.48,2.6,18.99,3.67-6.57,10.44-11.6,10.82-11.88l1.21-.89-.44,1.44c-2.03,6.68.42,12.96,2.16,16.27-.68-4.48-.05-8.13,1.86-10.88,2.81-4.05,7.36-4.61,7.56-4.63l1.34-.15-.92.99c-6.14,6.59-2.71,19.11-2.04,21.34,2.99-.16,6.85-4.23,11.21-11.8,3.48-6.05,6.04-12.24,6.06-12.3l.53-1.29.41,1.33c2.92,9.53-2.66,20.21-5.41,24.66,15.76-9.74,33.73-3,33.92-2.93l2.11.82-2.26.15c-9.1.61-19.22,8.28-22.71,11.16,30.28-3.69,34.86,4.71,35.04,5.07l.47.93-1.02-.22c-11.15-2.4-16.39.45-18.15,1.83,4.75.74,8.06,2.52,9.87,5.31,2.45,3.8,1.15,8.02,1.09,8.19l-.23.71-.57-.48c-2.85-2.39-4.34-2.47-4.97-2.31-.35.09-.57.28-.7.44,3.83,3.45,13.64,2.9,13.74,2.9l1.24-.07-.84.91c-2.54,2.76-8.47,2.51-13.26,1.74,2.46,1.56,3.98,3.46,4.92,5.08,1.73,3.02,1.85,5.71,1.85,5.82l.05,1.42-.93-1.08c-4.84-5.61-12.47-5.2-15.45-4.78,8.1,5.5,10.36,18.21,10.46,18.77l.24,1.4-8.29-7.31c.3,1.26.6,3.24.67,6.25.12,5.86-1.11,16.41-1.26,17.67.24.61.67,1.05,1.31,1.33,2.76,1.23,8.14-.95,8.19-.97l1.78-.73-1.2,1.5c-3.75,4.71-8.52,4.25-10.23,3.89-.06,1.98-.24,8.11-.24,9.69s4.49,6.63,7.47,10.02l1.2,1.38c3.09,3.55,2.64,4.98,1.78,6.37-.07.11-.13.21-.19.32-.67,1.21-4.16,2.16-8,3.12l-.22.06c-.43.11-.57.33-.63.49-.35.85.42,2.64,1.01,3.64,1.17.81,1.86,1.87,2.05,3.15.37,2.5-1.3,5.1-2,6.06,1.07,1.04,1.61,2.22,1.6,3.5-.02,2.32-1.83,4.28-2.56,4.97.48,1.03,1.85,4.19,2.18,6.7.43,3.27-.99,6.11-4.75,9.49-2.76,2.49-11.93,1.08-20.79-.28-3.9-.6-7.58-1.16-10.02-1.25-.1,0-.19,0-.29,0-6.3,0-7.62,7.06-8.41,11.31-.08.42-.15.82-.23,1.17-.77,3.73-1.77,17.33-1.77,22.46s8.45,20.48,8.53,20.63l.41.74ZM30.68,240.88h91.31c-1.72-3.21-8.26-15.68-8.26-20.37,0-5.17,1.02-18.89,1.79-22.66.07-.35.14-.73.22-1.15.81-4.32,2.32-12.41,9.72-12.12,2.5.08,6.21.65,10.14,1.26,7.82,1.2,17.56,2.7,19.97.53,3.53-3.17,4.81-5.67,4.43-8.61-.37-2.82-2.23-6.69-2.25-6.73l-.17-.35.3-.25s2.47-2.1,2.49-4.47c0-1.11-.53-2.13-1.6-3.05l-.37-.32.31-.38s2.46-3.03,2.07-5.66c-.15-1.04-.71-1.86-1.71-2.53l-.15-.15c-.19-.3-1.81-3-1.14-4.63.22-.55.68-.93,1.32-1.09l.22-.05c2.05-.51,6.85-1.71,7.36-2.63.07-.12.14-.24.21-.36.58-.94,1.18-1.91-1.68-5.19l-1.2-1.37c-4.37-4.98-7.72-8.93-7.72-10.68,0-1.9.24-10,.25-10.34l.02-.68.64.22c.2.07,4.52,1.49,8.41-1.97-1.97.58-5.01,1.2-7.04.29-.92-.41-1.55-1.09-1.88-2.02l-.04-.11v-.12c.03-.11,1.41-11.51,1.29-17.65-.12-5.92-1.18-7.62-1.19-7.63l-2-3.07,10.27,9.06c-.9-3.71-3.84-13.44-10.78-17.3l-1.11-.62,1.23-.3c.11-.03,10.05-2.39,16.62,3.75-.54-2.57-2.49-7.82-9.47-10.25-1.74-.41-2.93-.77-3.1-.82l.24-.97c1.09.21,2.09.47,3.01.79,4.12.97,11.51,2.26,15.15.25-3.13.01-10.17-.32-13.25-3.51l-.22-.22.11-.29s.37-1,1.52-1.31c1.34-.36,3.1.31,5.27,2,.24-1.3.47-4.11-1.16-6.62-1.76-2.73-5.19-4.41-10.19-4.99l-.88-.1.55-.7c.19-.24,4.64-5.69,18.41-3.15-2.43-2.1-10.59-6.51-34.77-3.31l-1.59.21,1.19-1.08c.49-.45,11.45-10.27,22.27-12.2-5.46-1.5-20.24-4.28-32.89,4.88l-2.56,1.86,1.87-2.56c.1-.13,9.44-13.12,7.01-24.47-2.28,5.22-10.7,23.37-17.81,23.37-.07,0-.13,0-.2,0l-.34-.02-.11-.32c-.2-.58-4.53-13.66,1.19-21.52-1.48.46-3.83,1.52-5.48,3.89-2.12,3.06-2.5,7.4-1.13,12.88l.6,2.42-1.49-2c-.27-.36-6.25-8.52-4.16-18.1-2.57,2.12-8.69,7.65-10.82,13.83-.34,1.84-.67,3.04-.71,3.21l-.98-.18c.1-1.08.34-2.15.69-3.2.89-4.86,1.97-14.38-1.46-21.18-1.96,3.66-9.91,17.79-15.56,17.79h-.64l.15-.62c.02-.1,2.33-9.85-2.36-13.8-.7,3.19-3.99,15.28-14.83,23.24l-.43.32-.29-.45c-.3-.48-6.97-11.18-2.93-16.55-.62.12-1.43.43-2.25,1.17-1.99,1.79-4.21,6.28-3.45,17.5l.17,2.55-1.12-2.29c-.15-.3-3.49-6.93-12.01-6.31,2.82,1.47,8.42,5.2,9.77,12.24l.03.15-.06.14c-.2.46-5.05,11.03-32.54,4.1,1.97,2.21,7.33,6.9,17.16,6.8h1.4s-1.07.88-1.07.88c-.58.49-13.05,10.84-22.35,10.08,2.29,1.17,5.9,2.46,9.82,1.66l.83-.17-.25.81c-1.26,4.07-4.4,13.55-6.74,13.37-.92-.05-1.69-1.17-2.75-2.7-1.93-2.8-4.52-6.57-9-5.43,1.73,1.28,5.56,4.51,6.39,8.53,1,4.86,5.64,9.2,6.57,9.29l.41.04.12.46c.1,1.06-4.62,3.19-7.13,3.96-3.63,1.11-6.43,1.04-8.25-.19.64,1.55,1.84,3.62,4.02,4.93,2.74,1.64,6.35,1.73,10.74.25l2.35-.79-1.86,1.64c-.15.13-14.2,12.64-9.94,20.12.46-2.41,1.88-7.7,5.87-10.46,2.55-1.76,5.69-2.17,9.34-1.22l.63.16-.32.57c-.12.21-10.73,19.08-10.04,27.18.92-2.52,3.03-7.08,6.88-9.35,2.31-1.37,4.9-1.69,7.7-.97l.85.22-.62.62c-.1.1-9.7,9.94-7.52,25.57.96-4.52,3.28-13.38,7-15.54.98-.57,1.99-.66,3.02-.28l.45.17-.15.46c-.07.2-6.49,20.39-1.08,28.76,3.94,6.1,7.85,6.25,9.66,5.89-2.31-1.42-7.43-5.56-5.47-13.51l.36-1.45.59,1.37c.06.13,5.34,12.28,13.32,14.35-1.7-1.93-4.72-5.92-3.25-8.54l.39-.7.46.66c.05.08,5.5,7.71,16.94,8.2l.16.03c.05.02,1.27.5,1.94,2.38,1.03,2.89.74,9-6.53,21.66-4.52,7.88-8.93,14.07-12.82,19.53-6.38,8.96-11.45,16.08-14.51,26.53Z"/>
</svg>