<?xml version="1.0" encoding="UTF-8"?>
<svg id="Layer_2" data-name="Layer 2" xmlns="http://www.w3.org/2000/svg" viewBox="0 0 160.42 240.95">
  <defs>
    <style>
      .cls-1 {
        fill: #fff9f6;
      }
    </style>
  </defs>
  <g>
    <path class="cls-1" d="M8.51,234.43h100.19s-11.13-20.67-11.13-30.61,3.18-27.83,7.95-31.01,26.89-3.59,29.1-4.97,7.31-7.31,7.73-11.32,0-7.18,0-7.18c0,0,3.04-1.1,3.59-2.35s1.1-5.8-.69-7.04c0,0,3.17-2.21,3.04-5.24s-1.79-5.93-1.66-7.04.14-2.48.97-2.48,6.99,1.16,8.56.97c1.16-.15,3.31-3.17,3.04-4.83s-8.28-20.56-11.73-25.67c0,0-1.52-3.45-1.24-4,0,0,7.59-.28,7.87-1.93,0,0-6.21.83-7.73,0,0,0,2.35-12.7,1.79-16.98s-2.21-11.73-2.21-11.73c0,0,6.21-13.66-10.07-22.36,0,0-4.28-15.87-11.73-20.15s-20.15-4.69-20.15-4.69c0,0-12.01-8.97-20.84-9.52s-20.7,5.93-20.7,5.93c0,0-19.32-1.24-26.08,4.14-6.76,5.38-18.91,22.08-18.77,35.88,0,0-8.62,9.94-9.07,16.56s4.52,18.91,4.52,18.91c0,0-4.82,6.9-4.55,14.08s4.13,15.46,4.13,15.46c0,0-.97,11.87,2.07,16.42s7.31,9.11,9.25,10.07,11.32,4,15.87,1.93c0,0,.28,6.62-1.66,10.63s-8.88,12.8-17.09,30.3c-8.62,18.36-12.73,42.29-12.54,49.82Z"/>
    <path class="cls-1" d="M109.53,234.93H8.02v-.49c-.2-7.7,3.96-31.68,12.58-50.05,5.64-12.03,10.63-19.85,13.93-25.04,1.49-2.34,2.57-4.04,3.17-5.27,1.49-3.09,1.62-7.89,1.62-9.68-4.97,1.63-13.7-1.26-15.61-2.21-2.12-1.06-6.44-5.75-9.44-10.24-2.96-4.44-2.27-15.22-2.16-16.61-.5-1.09-3.87-8.72-4.12-15.53-.25-6.62,3.64-12.88,4.48-14.16-.72-1.83-4.88-12.66-4.46-18.88.43-6.35,7.96-15.41,9.07-16.71-.03-13.96,12.11-30.64,18.96-36.09,6.6-5.25,24.36-4.37,26.28-4.26,1.38-.74,12.37-6.46,20.84-5.93,8.5.53,19.6,8.52,20.98,9.53,1.55.06,13.11.67,20.23,4.75,7.17,4.11,11.35,18.27,11.91,20.24,15.32,8.31,10.8,21.16,10.17,22.74.24,1.09,1.68,7.71,2.18,11.62.51,3.92-1.32,14.48-1.72,16.72,1.37.37,4.96.1,7.1-.18l.67-.09-.11.67c-.29,1.75-5.29,2.21-7.88,2.33.14.63.68,2.1,1.22,3.32,3.46,5.1,11.48,24.08,11.77,25.79.2,1.17-.56,2.7-1.33,3.73-.35.47-1.25,1.56-2.14,1.68-1.09.13-3.98-.3-6.3-.65-1.06-.16-2.07-.31-2.32-.31s-.36,1-.41,1.54c-.02.17-.04.34-.06.51-.05.36.24,1.2.53,2.08.46,1.37,1.04,3.08,1.12,4.88.12,2.55-1.83,4.51-2.77,5.3,1.51,1.82.93,5.98.38,7.21-.52,1.16-2.62,2.11-3.51,2.47.1.98.29,3.66-.04,6.9-.42,4.07-5.55,10.18-7.96,11.69-.93.58-4.19.93-9.88,1.49-6.93.69-16.42,1.62-19.2,3.48-4.48,2.99-7.73,20.35-7.73,30.6,0,9.7,10.96,30.17,11.07,30.38l.4.74ZM9,233.93h98.87c-2.01-3.83-10.8-21.11-10.8-30.11,0-10.34,3.26-28.15,8.17-31.43,2.99-1.99,12.23-2.91,19.66-3.64,4.46-.44,8.67-.86,9.45-1.34,2.03-1.27,7.1-7.08,7.5-10.94.4-3.89,0-7.03,0-7.06l-.05-.4.38-.14c1.1-.4,2.96-1.32,3.3-2.08.5-1.12.99-5.38-.52-6.42l-.59-.41.59-.41s2.95-2.09,2.82-4.81c-.08-1.66-.63-3.29-1.07-4.6-.38-1.12-.65-1.93-.58-2.52.02-.16.04-.32.05-.49.11-1.09.25-2.44,1.41-2.44.31,0,1.1.12,2.47.32,2.02.31,5.07.77,6.03.65.27-.03.84-.45,1.46-1.28.79-1.06,1.26-2.28,1.15-2.97-.24-1.45-8.22-20.39-11.65-25.47-1.11-2.51-1.53-4-1.28-4.51l.13-.27h.3c2.16-.09,4.24-.36,5.64-.7-2,.17-4.7.26-5.73-.3l-.32-.17.07-.36c.02-.13,2.33-12.67,1.79-16.82-.54-4.21-2.18-11.61-2.2-11.69l-.04-.16.07-.15c.24-.54,5.81-13.35-9.85-21.71l-.19-.1-.06-.21c-.04-.16-4.31-15.72-11.5-19.85-7.26-4.17-19.79-4.62-19.92-4.63h-.16s-.13-.1-.13-.1c-.12-.09-11.99-8.89-20.57-9.42-8.58-.53-20.31,5.81-20.43,5.87l-.13.07h-.15c-.19-.02-19.21-1.18-25.74,4.02-6.74,5.37-18.72,21.81-18.58,35.49v.19s-.12.14-.12.14c-.08.1-8.52,9.89-8.95,16.27-.44,6.43,4.43,18.56,4.48,18.69l.1.25-.15.22c-.05.07-4.72,6.85-4.46,13.77.26,6.99,4.05,15.18,4.09,15.26l.06.12v.13c-.02.12-.93,11.75,1.98,16.11,3.17,4.75,7.32,9.04,9.05,9.9,2.18,1.09,11.26,3.82,15.44,1.92l.68-.31.03.74c.01.28.26,6.8-1.71,10.86-.62,1.29-1.71,3-3.22,5.37-3.29,5.16-8.25,12.96-13.87,24.92-8.38,17.86-12.51,41.01-12.5,49.11Z"/>
  </g>
  <g>
    <path class="cls-1" d="M101.26,11.93s20.12-1.44,27.33,9.82c0,0-3.06-7.96-11.17-9.88-8.11-1.92-18.51-1.43-18.51-1.43l2.36,1.49Z"/>
    <path class="cls-1" d="M130.82,26.18l-2.66-4.16c-6.96-10.88-26.67-9.6-26.87-9.59h-.16s-3.84-2.41-3.84-2.41l1.59-.07c.1,0,10.57-.47,18.65,1.44,8.27,1.96,11.4,9.85,11.52,10.19l1.77,4.61ZM103.46,11.38c2.05,0,5.3.13,8.84.75,5.38.95,9.77,2.75,12.98,5.29-1.74-2.05-4.34-4.2-7.99-5.06-6.06-1.44-13.5-1.51-16.74-1.46l.83.53c.31-.02,1.04-.05,2.07-.05Z"/>
  </g>
  <g>
    <path class="cls-1" d="M17.58,50.24s-22.75,16.44-4.87,34.66c0,0-10.94-6.69-9.47-16.75s12.57-19.02,14.34-17.91Z"/>
    <path class="cls-1" d="M15.9,87.44l-3.45-2.11c-.11-.07-11.2-6.98-9.71-17.25,1.23-8.46,9.14-16.24,13.03-18.04.94-.44,1.62-.51,2.07-.22l.63.39-.6.44c-.11.08-10.58,7.77-11.46,18.19-.46,5.46,1.78,10.75,6.65,15.72l2.83,2.89ZM15.42,51.36c-3.87,2.29-10.59,9.37-11.69,16.87-.82,5.61,2.43,10.18,5.3,13.03-2.76-4.01-3.97-8.2-3.61-12.51.69-8.2,6.83-14.59,10-17.39Z"/>
  </g>
  <g>
    <path class="cls-1" d="M12.61,115.25s-3.81,12.59,2.74,21.19,17.87,8.41,20.23,7.66c0,0-12.42,3.77-20.62-6.39s-2.35-22.46-2.35-22.46Z"/>
    <path class="cls-1" d="M30.16,145.25c-4.47,0-10.76-1.26-15.59-7.23-8.31-10.29-2.47-22.86-2.41-22.99l.93.36c-.04.12-3.65,12.45,2.66,20.74,6,7.89,16.21,8.23,19.26,7.59.27-.06.42-.11.43-.11l.3.96c-.11.04-.25.07-.4.1-.79.19-2.7.58-5.18.58ZM11.19,126.98c.29,3.34,1.41,7.01,4.16,10.4,2.6,3.22,5.66,5,8.6,5.94-3.2-1.21-6.46-3.26-9-6.59-2.3-3.02-3.36-6.49-3.76-9.75Z"/>
  </g>
</svg>