<?xml version="1.0" encoding="UTF-8"?>
<svg id="Layer_1" data-name="Layer 1" xmlns="http://www.w3.org/2000/svg" viewBox="0 0 235.14 237.86">
  <defs>
    <style>
      .cls-1 {
        fill: #fff9f6;
      }
    </style>
  </defs>
  <g>
    <path class="cls-1" d="M86.92,232.6h105.39s-19.26-30.16-19.62-37.79-2.58-36.13,2.18-39.25c5.03-3.3,36.68.07,39.9-1.23,1.52-.61,6.52-2.14,4.32-10.02-.12-.42-.6-2.04-.29-2.25,1.4-.94,5.65-3.96,1.48-8.71,0,0,2.37-2.66,1.46-5.28s-2.93-2.06-3.04-3.4-.86-6.36.48-6.36,7.09-1.58,9.01-2.78c1.44-.9,2.09-3.04,1.61-4.43s-1.22-1.16-2.67-2.52c-.75-.7-4.95-6.51-5.71-7.8-.67-1.13-1.6-2.1-.96-10.23,0,0,5.47,2.67,10.73-2.46,0,0-8.11,2.78-9.87,0,0,0-.91-5.54.91-9.08,1.82-3.54,2.83-9.32,2.78-10.55s-.29-12.32-3.29-17.17c0,0,2.77-9.01-10.16-17.55,0,0-3.7-10.86-17.55-15.01s-42.27-11.78-58.2-6.01c-15.94,5.77-29.1,16.86-29.1,16.86,0,0-.92-20.79-28.18-24.48C51.27,1.41,29.33,22.43,25.4,35.59s-3.7,48.5,2.08,73.91c2.55,11.21,6.02,17.87,8.97,24.04,3.73,7.8,6.62,14.8,5.74,29.21-1.88,30.77-20.74,27.04-20.74,27.04,0,0,8.8,10.49,19.2,4.02s16.63-17.78,16.17-21.71c0,0,6.47,11.32-5.31,23.56s-28.75,6.93-28.75,6.93c0,0,5.9,15.43,20.2,12.7,8.4-1.6,12.46-2.08,24.48-12.7,8.84-7.81,10.39-32.8,6.01-48.5s-7.16-52.66-7.16-52.66c0,0-.92-20.56,3.46-27.25s8.78-16.4,19.63-12.7c0,0-3.04,20.28-.23,33.72,2.73,13.03,6.93,30.26,17.78,40.19,10.86,9.93,7.62,28.64,7.62,28.64.56.54-10.1,30.49-16.4,41.81-6.61,11.88-11.24,26.79-11.24,26.79Z"/>
    <path class="cls-1" d="M193.22,233.1h-106.98l.2-.65c.05-.15,4.72-15.09,11.28-26.88,6.26-11.24,15.96-38.81,16.35-41.34l-.05-.04.04-.26c.03-.18,3.06-18.56-7.47-28.19-10.29-9.42-14.7-25.01-17.94-40.46-2.58-12.31-.25-30.5.17-33.48-9-2.82-13.33,4.13-17.17,10.28-.5.81-1,1.6-1.49,2.35-4.25,6.49-3.39,26.75-3.38,26.96.03.35,2.82,37.07,7.14,52.55,4.51,16.16,2.81,41.09-6.16,49.01-11.71,10.35-16.03,11.17-23.87,12.66l-.85.16c-14.55,2.78-20.7-12.86-20.76-13.02l-.37-.96.98.31c.17.05,16.82,5.07,28.24-6.8,8.81-9.15,7.26-17.64,6-21.21-1.16,5.25-7.45,14.66-16.24,20.13-10.64,6.62-19.75-4.02-19.84-4.12l-.91-1.08,1.39.27c.05,0,5.68,1.05,10.92-3.01,5.42-4.2,8.53-12.13,9.23-23.57.86-14.04-1.82-20.86-5.7-28.96l-.74-1.54c-2.77-5.75-5.91-12.26-8.26-22.6-5.89-25.92-5.95-61.15-2.07-74.16C28.74,22.67,50.54.81,78.59,4.61c24.01,3.26,27.9,19.86,28.5,24.01,2.97-2.37,14.79-11.39,28.54-16.37,11.58-4.2,31.27-2.18,58.52,6,13,3.9,17.27,13.76,17.82,15.16,11.98,7.99,10.65,16.31,10.29,17.8,2.31,3.93,3.04,11.35,3.24,16.93v.29c.07,1.4-.99,7.23-2.83,10.8-1.59,3.09-.99,7.89-.88,8.67,1.38,1.88,7.11.44,9.23-.29l2.1-.72-1.59,1.55c-4.37,4.26-8.95,3.35-10.63,2.81-.5,6.9.23,8.1.82,9.07l.12.21c.75,1.27,4.92,7.03,5.62,7.69.53.5.95.76,1.33,1,.6.38,1.12.71,1.47,1.72.59,1.7-.26,4.04-1.82,5.02-1.96,1.23-7.8,2.86-9.28,2.86-.25.17-.47,1.18-.06,5.07.03.31.06.57.08.76.02.28.17.39.72.69.72.39,1.71.92,2.29,2.58.8,2.32-.65,4.59-1.28,5.44,1.25,1.54,1.79,3.06,1.6,4.54-.31,2.39-2.46,3.93-3.33,4.52,0,.17.04.6.35,1.69,2.24,8.05-2.55,9.92-4.36,10.62l-.23.09c-1.29.52-6.03.38-13.65.1-9.8-.36-23.23-.84-26.17,1.08-4.01,2.63-2.64,26.65-2.12,35.69.07,1.24.13,2.3.17,3.12.35,7.41,19.35,37.25,19.55,37.55l.49.77ZM87.6,232.1h103.79c-3.07-4.86-18.88-30.19-19.21-37.27-.04-.82-.1-1.87-.17-3.11-.95-16.63-1.38-33.99,2.58-36.58,3.21-2.1,15.72-1.65,26.75-1.25,6.21.23,12.08.44,13.24-.03l.24-.09c1.72-.67,5.76-2.25,3.79-9.33-.52-1.84-.54-2.5-.08-2.8.68-.46,2.74-1.84,3.01-3.89.17-1.28-.38-2.65-1.63-4.07l-.29-.33.29-.33s2.16-2.48,1.36-4.78c-.45-1.29-1.18-1.69-1.82-2.03-.55-.3-1.17-.63-1.24-1.49-.01-.18-.04-.43-.07-.73-.26-2.49-.46-4.98.31-5.83.2-.22.46-.34.74-.34,1.18,0,6.87-1.53,8.75-2.7,1.27-.79,1.79-2.72,1.4-3.84-.24-.68-.49-.84-1.06-1.2-.39-.25-.87-.55-1.48-1.11-.82-.77-5.1-6.72-5.8-7.91l-.12-.2c-.68-1.12-1.53-2.52-.91-10.33l.06-.73.66.32c.18.09,4.02,1.88,8.27-.85-2.67.64-6.73,1.19-8.05-.9l-.07-.19c-.04-.23-.92-5.74.96-9.39,1.78-3.46,2.78-9.12,2.73-10.3v-.29c-.29-7.84-1.43-13.75-3.21-16.63l-.12-.19.07-.22s.64-2.2-.25-5.36c-.83-2.93-3.19-7.33-9.71-11.63l-.14-.09-.06-.16c-.04-.11-3.79-10.67-17.22-14.7-27.04-8.11-46.51-10.13-57.89-6.01-15.67,5.68-28.82,16.66-28.95,16.77l-.78.65-.05-1.01c0-.2-1.25-20.42-27.75-24.01C50.95,1.87,29.61,23.24,25.88,35.74c-3.85,12.9-3.77,47.88,2.09,73.66,2.33,10.23,5.44,16.69,8.19,22.39l.74,1.54c3.94,8.24,6.66,15.17,5.79,29.45-.72,11.76-3.96,19.94-9.63,24.32-4.05,3.12-8.22,3.42-10.32,3.33,2.45,2.39,9.51,8.03,17.65,2.96,10.49-6.52,16.36-17.61,15.94-21.23l-.29-2.44,1.22,2.13c.07.12,6.51,11.79-5.39,24.15-10.18,10.58-24.34,8.23-28.23,7.33,1.55,3.23,7.54,13.71,19.23,11.47l.85-.16c7.92-1.5,11.89-2.25,23.4-12.43,8.56-7.56,10.2-32.44,5.85-47.99-4.35-15.57-7.15-52.39-7.18-52.76-.04-.86-.88-20.81,3.55-27.57.49-.75.98-1.53,1.48-2.33,3.88-6.23,8.72-13.98,18.73-10.57l.4.13-.06.41c-.03.2-3,20.35-.24,33.54,3.2,15.28,7.55,30.7,17.63,39.92,5.72,5.24,7.53,12.88,8.04,18.37.55,5.92-.23,10.53-.26,10.73h-.07c-.07,1.59-1.94,7.28-5.59,16.95-1.97,5.22-6.97,18.12-10.8,25.01-5.73,10.31-10.02,23.05-10.99,26.04Z"/>
  </g>
  <g>
    <path class="cls-1" d="M33.4,126.08s6.38,30.9,3.32,44.21c-1.36,5.93-2.18,9.95-7.99,16.23-3.63,3.92-4.43,3.41-4.43,3.41,0,0,5.52-2.39,9.57-8.25,3.95-5.72,4.66-9.1,6.05-14.59,1.41-5.56,1.13-25.32-.56-29.19s-2.64-9-2.64-9l-3.32-2.82Z"/>
    <path class="cls-1" d="M24.42,190.45c-.15,0-.28-.03-.39-.1l-.79-.51.86-.37s.88-.39,2.14-1.19c.55-.48,1.25-1.15,2.12-2.09,5.58-6.03,6.45-9.83,7.77-15.57l.1-.44c3-13.05-3.25-43.68-3.32-43.99l-.29-1.42,4.56,3.87.03.17c0,.05.96,5.12,2.61,8.89,1.81,4.14,1.94,24.19.59,29.51l-.23.91c-1.27,5.04-2.11,8.36-5.89,13.84-2.49,3.6-5.49,5.9-7.51,7.18-1.02.87-1.82,1.32-2.35,1.32ZM34.18,127.39c1.22,6.27,5.75,31.21,3.03,43.01l-.1.44c-1,4.35-1.79,7.78-4.68,11.94.35-.44.7-.9,1.04-1.39,3.68-5.32,4.5-8.58,5.74-13.51l.23-.92c1.41-5.56,1.05-25.25-.53-28.86-1.54-3.52-2.46-7.98-2.64-8.93l-2.09-1.77Z"/>
  </g>
</svg>