<?xml version="1.0" encoding="UTF-8"?>
<svg id="Layer_2" data-name="Layer 2" xmlns="http://www.w3.org/2000/svg" viewBox="0 0 187.38 270.76">
  <defs>
    <style>
      .cls-1 {
        fill: #701c1b;
      }
    </style>
  </defs>
  <g>
    <path class="cls-1" d="M2.65,233.1h159.21s2.73-39.35-25.88-57.23c0,0-14.76,24.08-15.73,38.38,0,0-8.13-34.78,9.1-50.06,0,0,34.3.56,38.03-1.63s7.15-9.1,3.25-15.28c0,0-.82-2.82,1.48-4.2,2.42-1.45,5-4.95,4.85-8-.17-3.5-2.03-5.01-4.38-5.95,0,0,8.68-4.92,2.34-11.02,0,0,2.4-4.69,3.31-4.69s5.6-2.58,5.36-6.1-12.6-17.34-13.13-19.23c0,0-2.95-5.17-3.51-10.43-.21-2-.08-4.01.7-5.75,2.81-6.33,12.19-9.85,9.15-26.97-3.05-17.12-16.41-30.48-26.26-32.83s-14.3,1.41-14.3,1.41c0,0-41.74-16.88-68.24-7.03,0,0-24.62,9.38-32.83,27.91,0,0-4.28,3.44-8.87,11.29-5.15,8.79-10.69,23.1-11.06,44.29-.7,40.1,5.63,33.53,6.57,41.27s3.99,34.24.7,47.84c-3.28,13.6-3.13,31.6-19.86,54.02Z"/>
    <path class="cls-1" d="M162.33,233.6H1.66l.6-.8c13.18-17.68,15.85-32.7,17.98-44.78.57-3.2,1.1-6.23,1.79-9.06,2.17-9.01,1.92-25.93-.71-47.66-.25-2.06-.9-3.04-1.72-4.28-2.26-3.42-5.36-8.1-4.85-37.06.38-21.75,6.26-36.22,11.13-44.53,4.27-7.29,8.22-10.78,8.9-11.35C43.01,15.65,67.58,6.11,67.82,6.02c25.28-9.4,64.73,5.52,68.34,6.93,1.08-.76,5.68-3.43,14.5-1.33,10.45,2.49,23.65,16.43,26.64,33.23,2.26,12.67-2.25,18.11-5.87,22.48-1.32,1.6-2.57,3.11-3.31,4.77-.66,1.5-.89,3.35-.66,5.5.54,5.09,3.42,10.18,3.45,10.23l.05.11c.17.63,2.3,3.33,4.35,5.95,4.9,6.26,8.66,11.22,8.8,13.38.09,1.38-.49,2.8-1.7,4.08-1.46,1.56-3.44,2.55-4.17,2.55-.4.16-1.69,2.19-2.7,4.09,1.66,1.7,2.39,3.49,2.16,5.32-.35,2.75-2.78,4.8-4.07,5.72,1.84.9,3.66,2.49,3.83,6.01.15,3.24-2.52,6.91-5.09,8.45-1.79,1.07-1.37,3.17-1.27,3.57,2.12,3.39,1.94,6.67,1.41,8.84-.73,2.99-2.64,5.77-4.87,7.08-3.7,2.17-35.03,1.74-38.1,1.7-8.64,7.78-10.59,20.73-10.7,30.24-.08,6.71.72,12.69,1.31,16.14,2.52-14.3,14.85-34.54,15.41-35.46l.26-.43.43.27c28.53,17.83,26.14,57.3,26.11,57.69l-.03.47ZM3.64,232.6h157.74c.18-4.45.68-39.46-25.23-56.04-1.98,3.32-14.52,24.75-15.4,37.72l-.23,3.33-.76-3.25c-.02-.09-2.04-8.88-1.92-19.42.11-9.78,2.14-23.11,11.18-31.13l.15-.13h.19c9.5.16,34.81.18,37.77-1.55,2.01-1.18,3.74-3.71,4.41-6.45.48-1.99.65-5.01-1.32-8.13l-.06-.13c-.32-1.1-.38-3.52,1.7-4.77,2.33-1.4,4.74-4.77,4.61-7.55-.17-3.49-2.15-4.74-4.07-5.51l-.96-.38.9-.51s3.97-2.3,4.37-5.5c.2-1.59-.52-3.18-2.13-4.73l-.27-.26.17-.33c1.16-2.26,2.75-4.96,3.76-4.96.34,0,2.12-.81,3.46-2.26.69-.75,1.5-1.92,1.4-3.3-.13-2.02-5.02-8.27-8.59-12.83-2.67-3.41-4.22-5.41-4.5-6.23-.32-.57-3.01-5.48-3.55-10.58-.25-2.33,0-4.35.74-6.01.8-1.79,2.09-3.35,3.46-5.01,3.67-4.43,7.83-9.45,5.65-21.67-2.92-16.41-15.74-30.02-25.89-32.43-9.45-2.25-13.82,1.27-13.87,1.3l-.23.19-.28-.11c-.42-.17-41.87-16.7-67.88-7.03-.24.09-24.52,9.52-32.55,27.64l-.05.11-.09.08s-4.27,3.49-8.75,11.15c-4.81,8.21-10.61,22.51-10.99,44.04-.5,28.65,2.62,33.37,4.69,36.49.86,1.3,1.6,2.42,1.88,4.71,2.65,21.84,2.89,38.9.69,48.02-.68,2.81-1.21,5.82-1.77,9-2.12,12-4.76,26.88-17.58,44.4Z"/>
  </g>
  <g>
    <path class="cls-1" d="M154.3,190.19s12.97,19.51,8.97,41.79c-4,22.28-14,35.51-14,35.51,0,0-2.42-29.92-19.69-36.03-10.79-3.82-10.64-29.43-8.27-44.98,1.6-10.47,6.81-17.57,6.81-17.57,0,0,29.63,13.85,35.64,27.52,5.39,12.28,7.87,27.34,4.47,40.96s-10.28,23.13-10.28,23.13c0,0,6.74-15.93,7.56-19.48,2.01-8.63,2.02-19.23,1.02-24-1.43-6.79-1.38-7.97-3.14-12.3-2.37-5.81-9.1-14.55-9.1-14.55Z"/>
    <path class="cls-1" d="M148.88,268.84l-.11-1.31c-.02-.3-2.6-29.67-19.35-35.6-11.66-4.13-10.72-31.58-8.6-45.53,1.6-10.47,6.85-17.72,6.9-17.79l.24-.33.37.17c1.22.57,29.87,14.08,35.89,27.77,6,13.65,7.64,28.7,4.5,41.29-3.3,13.23-10.29,23.2-10.36,23.3l-2.67,3.76,1.8-4.25c.07-.16,6.73-15.93,7.54-19.4,1.95-8.39,2.05-18.88,1.02-23.79-.34-1.62-.6-2.92-.81-4.01-.69-3.5-.98-4.94-2.3-8.2-1-2.45-2.8-5.45-4.54-8.09,3.52,7.7,7.92,20.95,5.36,35.22-3.97,22.14-13.99,35.59-14.09,35.73l-.79,1.05ZM128.3,169.54c-1.03,1.52-5.12,8.06-6.49,17.01-2.42,15.87-2.31,40.8,7.94,44.43,7.21,2.55,12.96,9.68,16.62,20.62,2.07,6.16,2.94,11.96,3.25,14.5,2.39-3.58,9.86-15.88,13.15-34.22,3.91-21.82-8.77-41.23-8.9-41.43l.81-.58c.28.36,6.8,8.86,9.17,14.67,1.37,3.35,1.66,4.82,2.36,8.39.22,1.1.47,2.39.81,4,1.05,5.01.96,15.7-1.02,24.22-.49,2.1-2.96,8.34-4.96,13.22,2.21-4.14,4.97-10.17,6.7-17.11,3.08-12.37,1.46-27.19-4.45-40.64-5.49-12.51-31.54-25.41-35.01-27.08Z"/>
  </g>
  <g>
    <path class="cls-1" d="M175.62,77.82s-6.4,3.59-9.78,0c-3.38-3.59,1.56,4.45,1.56,4.45,0,0,7.15-.32,8.22-4.45Z"/>
    <path class="cls-1" d="M167.13,82.78l-.15-.25c-3.34-5.44-2.94-5.75-2.59-6.02.49-.38,1.06.16,1.82.96,3.07,3.26,9.11-.06,9.17-.09l1.02-.57-.29,1.13c-1.15,4.44-8.37,4.81-8.68,4.83h-.29ZM165.81,78.49c.49.93,1.18,2.15,1.86,3.27,1.13-.1,5.28-.61,6.91-2.88-2.05.86-6.08,2.05-8.78-.38Z"/>
  </g>
  <g>
    <path class="cls-1" d="M36.17,33.37c.16-2.66-19.2,17.44-22.27,44.87-2.51,22.41,3.11,41.51,3.11,41.51l4.79,11.48c-.74.18-11.49-26.29-9.82-51.61,1.65-25,21.8-45.75,24.19-46.26Z"/>
    <path class="cls-1" d="M21.68,131.78l-.26-.19c-.54-.46-2.08-3.84-3.8-9.08l-1.07-2.56c-.03-.08-.68-2.34-1.44-6.15-2.43-9.68-4.43-22.12-3.63-34.2,1.17-17.77,11.67-33.53,18.65-41.4,2.79-3.54,5.05-5.55,5.89-5.55.01,0,.03,0,.04,0,.31.03.64.28.61.76l-.02.38-.37.08c-.55.12-2.85,2.13-5.82,5.59-5.76,7.41-14.1,21.38-16.06,38.85-1.61,14.34.16,27.42,1.61,34.87.89,3.57,1.85,6.76,2.73,9.42l3.75,8.99-.81.2ZM20.91,53.15c-4.2,7.5-7.78,16.67-8.43,26.51-.37,5.55-.14,11.12.44,16.45-.29-5.48-.23-11.58.48-17.92,1.03-9.23,4.02-17.84,7.51-25.04ZM36.17,33.37l-.5-.03.5.03Z"/>
  </g>
</svg>