<?xml version="1.0" encoding="UTF-8"?>
<svg id="Layer_1" data-name="Layer 1" xmlns="http://www.w3.org/2000/svg" viewBox="0 0 176.05 226.8">
  <defs>
    <style>
      .cls-1 {
        fill: #fff9f6;
      }
    </style>
  </defs>
  <path class="cls-1" d="M159.78,39.07s-20.96,17.11-26.51,27.23c0,0,13.25-28.19,32.77-39.76,0,0-17.35-20.48-52.77-22.89-35.42-2.41-48.43-.72-60.72,3.37-12.29,4.1-33.49,33.01-37.11,46.02C11.83,66.05,1.47,89.19.99,118.83s.72,62.65,13.49,80.24c0,0,5.54,6.75-2.41,21.2h115.9s-5.54-11.08-6.99-12.53-1.45-14.7-6.27-18.07c0,0,6.02-3.13,6.75-16.87.72-13.73-.48-27.23-.48-27.23,0,0,9.88-3.61,20-.72s18.55,1.69,20-.48,2.65-7.95,1.69-9.64-2.41-4.58-.24-5.3,4.17-2.5,4.17-4.61-2.22-5.21-3.55-5.77c0,0,4.39-3.47,4.31-6.04-.08-2.72-1.98-5.49-3.31-5.72s-1.89-2.55-.67-4.33,8.25-1.49,8.25-4.5c0-5.06-8.36-16.02-10.58-18.35-2.22-2.33-1.77-4.77-1.77-4.77,0,0,7.21,3.88,10.21-1.66,0,0-6.77,3-9.87-1.11s2.34-15.76.17-33.51Z"/>
  <path class="cls-1" d="M128.79,220.77H11.23l.41-.74c7.67-13.94,2.51-20.58,2.46-20.65C1.24,181.67,0,148.72.49,118.82c.38-23.25,6.71-42.18,11.33-56.01,1.27-3.8,2.36-7.07,3.15-9.9,1.77-6.38,7.81-16.79,15.39-26.53,8.34-10.72,16.37-17.95,22.04-19.84,12.46-4.15,25.31-5.82,60.92-3.4,18.4,1.25,31.85,7.45,39.9,12.42,8.73,5.4,13.18,10.59,13.22,10.64l.38.45-.51.3c-13.32,7.89-23.79,23.78-28.99,32.83,8-9.53,21.46-20.55,22.15-21.12l.7-.57.11.9c1.15,9.36.17,17.13-.54,22.8-.63,5.04-1.09,8.67.27,10.46,2.83,3.74,9.21.98,9.27.95l1.33-.59-.69,1.28c-2.62,4.85-8.21,3.03-10.18,2.19.04.81.33,2.25,1.67,3.66,1.82,1.91,10.72,13.28,10.72,18.69,0,2.16-2.7,2.86-5.07,3.47-1.41.36-2.87.74-3.27,1.32-.69,1-.7,2.15-.4,2.85.1.23.33.63.74.7,1.57.26,3.64,3.23,3.73,6.19.07,2.23-2.74,4.93-3.95,5.99,1.49,1.13,3.19,3.9,3.19,5.83,0,2.46-2.34,4.36-4.51,5.08-.37.12-.6.32-.71.61-.28.73.13,2.07,1.22,3.97,1.14,1.99-.29,8.04-1.7,10.16-1.73,2.6-10.89,3.45-20.55.69-8.77-2.5-17.48,0-19.33.59.19,2.33,1.1,14.59.45,26.91-.6,11.42-4.8,15.66-6.4,16.88,2.89,2.62,3.91,8.63,4.67,13.08.35,2.07.72,4.21,1.11,4.6,1.49,1.49,6.85,12.21,7.08,12.66l.36.72ZM12.91,219.77h114.26c-1.75-3.46-5.47-10.62-6.53-11.68-.59-.59-.88-2.17-1.38-5.14-.78-4.56-1.84-10.8-4.81-12.88l-.68-.47.73-.38c.06-.03,5.78-3.23,6.48-16.45.71-13.54-.47-27.02-.48-27.16l-.03-.38.36-.13c.41-.15,10.15-3.64,20.31-.73,9.73,2.78,18.15,1.67,19.45-.28,1.45-2.18,2.47-7.72,1.67-9.11-.87-1.53-1.81-3.46-1.29-4.83.22-.58.67-.98,1.32-1.2,1.84-.61,3.82-2.17,3.82-4.13s-2.11-4.83-3.24-5.31l-.78-.33.67-.53c1.17-.92,4.18-3.74,4.12-5.64-.07-2.54-1.86-5.06-2.89-5.24-.65-.11-1.19-.58-1.5-1.3-.49-1.15-.29-2.65.5-3.8.61-.88,2.11-1.27,3.84-1.72,2.03-.52,4.32-1.12,4.32-2.5,0-4.86-8.3-15.76-10.45-18-2.37-2.49-1.92-5.09-1.9-5.21l.12-.68.61.33c.25.13,5.6,2.94,8.64-.22-2.28.67-6.55,1.36-8.94-1.81-1.6-2.12-1.12-5.92-.46-11.19.68-5.43,1.6-12.8.64-21.64-3.7,3.08-20.82,17.62-25.68,26.5l-.89-.45c.13-.28,13.3-27.96,32.45-39.66-1.25-1.35-5.48-5.61-12.63-10.03-7.94-4.91-21.23-11.02-39.4-12.25-35.44-2.41-48.19-.76-60.53,3.35-12.22,4.07-33.32,33.2-36.78,45.68-.79,2.85-1.89,6.14-3.16,9.95-4.6,13.76-10.9,32.61-11.28,55.71-.48,29.74.73,62.49,13.4,79.94.21.26,5.46,6.92-1.98,21Z"/>
</svg>