<?xml version="1.0" encoding="UTF-8"?>
<svg id="Layer_1" data-name="Layer 1" xmlns="http://www.w3.org/2000/svg" viewBox="0 0 167.28 244.19">
  <defs>
    <style>
      .cls-1 {
        fill: #fff9f6;
      }
    </style>
  </defs>
  <g>
    <path class="cls-1" d="M14.06,237.77h112.09s-13.01-28.46-18.9-36.08-2.77-32.22.17-33.09c2.94-.87,32.74,1.04,35.34-1.21s4.5-8.14,3.46-9.87-2.08-3.98-.69-4.5,7.97-5.54,6.76-8.49-3.64-4.33-3.64-4.33c0,0,4-2.85,3.79-5.39s-3.98-2.65-4.18-3.77-.31-3.06.71-3.67,8.15-3.36,8.05-4.89,2.75-3.26-1.43-6.93c-4.18-3.67-8.79-10.58-8.68-12.99s.1-6.85.7-7.05c0,0,6.34,1.91,9.46-3.12,0,0-6.14,2.52-8.26.91,0,0-1.11-3.73-.5-6.04s3.12-9.87,3.12-11.98.1-10.57.1-10.57c0,0,10.4-20.72,3.44-31.89-6.96-11.18-13.27-12.17-13.27-12.17,0,0-9.07-7.17-25.94-6.33,0,0-9.7-9.91-22.56-10.33s-34.16,15.6-37.11,23.19l-2.48,3.53s-22.21-.85-29.12,21.15c0,0-22.26,5.31-10.44,23.6,0,0-15.5,14.03-5.29,29.65,10.2,15.62,26.57,1.91,26.57,1.91,0,0-7.23,33.8,10.42,23.92,0,0-5.63,10.2,6.48,11.27,0,0,2.66,17.33-6.16,31.99-8.82,14.67-23.28,41.45-24.87,45.92s-7.14,17.67-7.14,17.67Z"/>
    <path class="cls-1" d="M126.93,238.27H13.3l.29-.69c.06-.13,5.56-13.24,7.13-17.64,1.66-4.64,16.33-31.73,24.91-46.01,7.91-13.14,6.46-28.66,6.15-31.28-3.62-.39-6.02-1.65-7.14-3.76-1.27-2.39-.56-5.23.06-6.86-3.26,1.54-5.87,1.61-7.79.2-5.53-4.08-3.19-19.39-2.33-24.02-2.47,1.77-8.84,5.71-15.52,4.71-4.26-.63-7.87-3.17-10.73-7.55-5.4-8.27-3.64-16.08-1.21-21.18,2.22-4.66,5.3-7.88,6.28-8.83-3.29-5.24-4.14-9.95-2.51-14,2.74-6.83,11.5-9.47,13.2-9.93,6.61-20.51,26.66-21.23,29.26-21.24l2.3-3.26c3.18-7.99,24.4-23.46,37.08-23.46.17,0,.33,0,.49,0,12.01.39,21.4,9.03,22.74,10.32,16-.74,24.88,5.55,25.95,6.37.98.21,6.95,1.89,13.49,12.38,6.84,10.99-2.49,30.49-3.37,32.28-.01,1.01-.1,8.48-.1,10.45,0,1.6-1.27,5.83-2.29,9.22-.36,1.21-.68,2.25-.84,2.88-.49,1.89.25,4.87.45,5.6,1.66,1.01,6.04-.41,7.63-1.06l1.43-.58-.81,1.31c-2.84,4.59-8.23,3.75-9.67,3.43-.25.82-.33,3.52-.37,5.03-.02.53-.03,1.03-.05,1.47-.09,2.07,4.19,8.8,8.51,12.6,3.33,2.93,2.48,4.9,1.91,6.2-.18.42-.34.78-.32,1.07.08,1.27-2.32,2.61-6.77,4.63-.7.32-1.3.59-1.51.72-.66.39-.71,1.86-.48,3.15.03.18.75.5,1.17.69,1.21.54,2.86,1.29,3.02,3.12.18,2.2-2.29,4.48-3.43,5.41.84.63,2.35,1.99,3.25,4.17.3.72.24,1.57-.17,2.51-1.26,2.89-5.68,6.19-6.87,6.63-.16.06-.25.15-.3.29-.09.27-.16,1.15,1.25,3.49,1.2,2.01-.89,8.19-3.57,10.51-1.61,1.4-10.69,1.37-23.33,1.17-5.72-.09-11.12-.17-12.19.14-.21.06-.71.63-1.27,2.37-2.26,6.97-3.22,24.01,1.35,29.93,5.86,7.58,18.43,35.01,18.96,36.18l.32.71ZM14.81,237.27h110.56c-2.05-4.44-13.24-28.45-18.51-35.27-4.95-6.41-3.78-23.86-1.51-30.85.79-2.43,1.48-2.89,1.94-3.02,1.15-.34,5.5-.29,12.49-.18,8.45.13,21.22.33,22.67-.93,2.41-2.09,4.24-7.77,3.36-9.24-1.21-2.02-1.65-3.44-1.33-4.34.15-.42.46-.73.89-.89,1.05-.4,5.17-3.49,6.3-6.1.3-.69.36-1.27.17-1.73-1.13-2.74-3.4-4.07-3.42-4.09l-.67-.39.63-.45c1.05-.75,3.73-3.09,3.58-4.95-.1-1.25-1.34-1.81-2.43-2.29-.87-.39-1.62-.73-1.75-1.43-.14-.76-.48-3.33.95-4.18.26-.16.83-.42,1.61-.77,4.11-1.87,6.19-3.1,6.19-3.66-.04-.53.18-1.01.4-1.53.53-1.22,1.13-2.6-1.66-5.05-3.96-3.48-8.97-10.6-8.85-13.39.02-.43.03-.93.05-1.46.13-4.47.28-5.8,1-6.04l.15-.05.15.05c.22.06,4.8,1.38,7.83-1.58-2.07.67-5.46,1.46-7.07.24l-.13-.1-.05-.16c-.05-.16-1.14-3.89-.51-6.31.17-.65.48-1.7.85-2.92.9-2.98,2.25-7.48,2.25-8.93,0-2.12.1-10.58.1-10.58v-.12s.05-.1.05-.1c.1-.2,10.19-20.6,3.46-31.41-6.73-10.8-12.87-11.93-12.93-11.95l-.13-.02-.1-.08c-.09-.07-9.15-7.04-25.6-6.22h-.22s-.16-.15-.16-.15c-.1-.1-9.72-9.77-22.22-10.18-.17,0-.34,0-.51,0-13.08,0-33.4,15.89-36.12,22.88l-.06.11-2.64,3.75h-.27c-.24-.03-21.92-.58-28.63,20.79l-.08.27-.28.07c-.1.02-10.01,2.47-12.79,9.41-1.53,3.82-.64,8.34,2.65,13.43l.23.36-.31.29c-.15.14-15.06,13.93-5.21,29.01,2.69,4.12,6.07,6.51,10.03,7.1,7.94,1.18,15.72-5.24,15.8-5.3l1.11-.93-.3,1.42c-.04.2-4.19,19.97,1.69,24.3,1.81,1.34,4.5,1.02,7.99-.93l1.52-.85-.84,1.53s-2.28,4.21-.66,7.26c1,1.87,3.27,2.97,6.75,3.27l.39.03.06.39c.03.18,2.58,17.67-6.23,32.33-9.19,15.29-23.31,41.57-24.83,45.83-1.37,3.84-5.7,14.22-6.86,17Z"/>
  </g>
  <path class="cls-1" d="M12.22,75.2s-13.36-22.47,13.35-23.35c0,0-23.29.32-13.35,23.35Z"/>
  <path class="cls-1" d="M141.71,20.64s30.9,5.36,12.73,40.75c0,0,15.1-31.13-12.73-40.75Z"/>
</svg>